<svg width="407" height="60" viewBox="0 0 407 60" fill="none" xmlns="http://www.w3.org/2000/svg">
<path d="M0.75 59.0002V0.818405H41.6591V13.5457H16.5455V23.5457H39.1591V36.273H16.5455V59.0002H0.75Z" fill="#30303D"/>
<path d="M63.2642 0.818405V59.0002H47.4688V0.818405H63.2642Z" fill="#30303D"/>
<path d="M121.091 0.818405V59.0002H107.909L86.8864 28.432H86.5455V59.0002H70.75V0.818405H84.1591L104.841 31.273H105.295V0.818405H121.091Z" fill="#30303D"/>
<path d="M150.949 59.0002H128.562V0.818405H150.722C156.706 0.818405 161.877 1.98318 166.233 4.31273C170.608 6.62333 173.979 9.95666 176.347 14.3127C178.733 18.6498 179.926 23.8487 179.926 29.9093C179.926 35.9699 178.742 41.1783 176.375 45.5343C174.008 49.8714 170.655 53.2048 166.318 55.5343C161.981 57.8449 156.858 59.0002 150.949 59.0002ZM144.358 45.5911H150.381C153.259 45.5911 155.712 45.1271 157.739 44.1991C159.784 43.2711 161.337 41.6707 162.398 39.398C163.477 37.1252 164.017 33.9623 164.017 29.9093C164.017 25.8563 163.468 22.6934 162.369 20.4207C161.29 18.1479 159.699 16.5476 157.597 15.6195C155.513 14.6915 152.956 14.2275 149.926 14.2275H144.358V45.5911Z" fill="#30303D"/>
<path d="M203.172 59.0002V0.818405H244.081V13.5457H218.967V23.5457H241.581V36.273H218.967V59.0002H203.172Z" fill="#30303D"/>
<path d="M257.739 59.0002H240.693L259.898 0.818405H281.489L300.693 59.0002H283.648L270.92 16.8411H270.466L257.739 59.0002ZM254.557 36.0457H286.602V47.8639H254.557V36.0457Z" fill="#30303D"/>
<path d="M357.881 22.6366H341.858C341.744 21.3108 341.441 20.1082 340.949 19.0286C340.475 17.9491 339.813 17.0211 338.96 16.2445C338.127 15.4491 337.114 14.843 335.92 14.4264C334.727 13.9908 333.373 13.7729 331.858 13.7729C329.206 13.7729 326.962 14.4169 325.125 15.7048C323.307 16.9926 321.924 18.8392 320.977 21.2445C320.049 23.6498 319.585 26.5381 319.585 29.9093C319.585 33.4699 320.059 36.4529 321.006 38.8582C321.972 41.2445 323.364 43.0438 325.182 44.2559C327 45.4491 329.188 46.0457 331.744 46.0457C333.203 46.0457 334.509 45.8658 335.665 45.5059C336.82 45.1271 337.824 44.5873 338.676 43.8866C339.528 43.1858 340.22 42.343 340.75 41.3582C341.299 40.3544 341.669 39.2275 341.858 37.9775L357.881 38.0911C357.691 40.5533 357 43.0627 355.807 45.6195C354.614 48.1574 352.919 50.5059 350.722 52.665C348.544 54.8051 345.845 56.5286 342.625 57.8355C339.405 59.1423 335.665 59.7957 331.403 59.7957C326.063 59.7957 321.271 58.6498 317.028 56.3582C312.805 54.0665 309.462 50.6953 307 46.2445C304.557 41.7938 303.335 36.3487 303.335 29.9093C303.335 23.432 304.585 17.9775 307.085 13.5457C309.585 9.09492 312.956 5.73318 317.199 3.46045C321.441 1.16878 326.176 0.0229492 331.403 0.0229492C335.078 0.0229492 338.458 0.524843 341.545 1.52863C344.633 2.53242 347.341 4.00022 349.67 5.93204C352 7.84492 353.875 10.2029 355.295 13.0059C356.716 15.8089 357.578 19.0192 357.881 22.6366Z" fill="#30303D"/>
<path d="M365.047 59.0002V0.818405H406.979V13.5457H380.842V23.5457H404.82V36.273H380.842V46.273H406.865V59.0002H365.047Z" fill="#30303D"/>
</svg>
