<svg width="240" height="240" viewBox="0 0 240 240" fill="none" xmlns="http://www.w3.org/2000/svg">
<path d="M120 200C97.6667 200 78.75 192.25 63.25 176.75C47.75 161.25 40 142.333 40 120C40 97.6667 47.75 78.75 63.25 63.25C78.75 47.75 97.6667 40 120 40C142.333 40 161.25 47.75 176.75 63.25C192.25 78.75 200 97.6667 200 120C200 142.333 192.25 161.25 176.75 176.75C161.25 192.25 142.333 200 120 200ZM120 180C136.667 180 150.833 174.167 162.5 162.5C174.167 150.833 180 136.667 180 120C180 117.167 179.793 114.373 179.38 111.62C178.96 108.873 178.333 106.167 177.5 103.5C175 104 172.5 104.373 170 104.62C167.5 104.873 165 105 162.5 105C152 105 142 103 132.5 99C123 95 114.5 89.1667 107 81.5C102.333 91 95.9167 99.25 87.75 106.25C79.5833 113.25 70.3333 118.333 60 121.5C60.5 137.833 66.54 151.667 78.12 163C89.7067 174.333 103.667 180 120 180ZM95 140C92.1667 140 89.7933 139.04 87.88 137.12C85.96 135.207 85 132.833 85 130C85 127.167 85.96 124.79 87.88 122.87C89.7933 120.957 92.1667 120 95 120C97.8333 120 100.21 120.957 102.13 122.87C104.043 124.79 105 127.167 105 130C105 132.833 104.043 135.207 102.13 137.12C100.21 139.04 97.8333 140 95 140ZM145 140C142.167 140 139.793 139.04 137.88 137.12C135.96 135.207 135 132.833 135 130C135 127.167 135.96 124.79 137.88 122.87C139.793 120.957 142.167 120 145 120C147.833 120 150.21 120.957 152.13 122.87C154.043 124.79 155 127.167 155 130C155 132.833 154.043 135.207 152.13 137.12C150.21 139.04 147.833 140 145 140ZM10 60V10H60V30H30V60H10ZM60 230H10V180H30V210H60V230ZM180 230V210H210V180H230V230H180ZM210 60V30H180V10H230V60H210Z" fill="url(#paint0_linear_24_63)"/>
<defs>
<linearGradient id="paint0_linear_24_63" x1="10" y1="125.194" x2="230" y2="125.194" gradientUnits="userSpaceOnUse">
<stop offset="0.9996" stop-color="#1BDCE3"/>
<stop offset="0.9997" stop-color="#56A7E9"/>
<stop offset="0.9998" stop-color="#F121FD"/>
<stop offset="0.9999" stop-color="#A366F2"/>
</linearGradient>
</defs>
</svg>
